<svg width="40" height="40" viewBox="0 0 40 40" fill="none" xmlns="http://www.w3.org/2000/svg">
<path d="M20 40C14.4444 40 9.72222 38.0556 5.83333 34.1667C1.94444 30.2778 0 25.5556 0 20C0 14.4444 1.94444 9.72222 5.83333 5.83333C9.72222 1.94444 14.4444 0 20 0C20.5185 0 21.0278 0.0185185 21.5278 0.0555556C22.0278 0.0925926 22.5185 0.148148 23 0.222222C21.4815 1.2963 20.2685 2.69444 19.3611 4.41667C18.4537 6.13889 18 8 18 10C18 13.3333 19.1667 16.1667 21.5 18.5C23.8333 20.8333 26.6667 22 30 22C32.037 22 33.9074 21.5463 35.6111 20.6389C37.3148 19.7315 38.7037 18.5185 39.7778 17C39.8518 17.4815 39.9074 17.9722 39.9444 18.4722C39.9815 18.9722 40 19.4815 40 20C40 25.5556 38.0556 30.2778 34.1667 34.1667C30.2778 38.0556 25.5556 40 20 40ZM20 35.5556C23.2593 35.5556 26.1852 34.6574 28.7778 32.8611C31.3704 31.0648 33.2593 28.7222 34.4444 25.8333C33.7037 26.0185 32.963 26.1667 32.2222 26.2778C31.4815 26.3889 30.7407 26.4444 30 26.4444C25.4444 26.4444 21.5648 24.8426 18.3611 21.6389C15.1574 18.4352 13.5556 14.5556 13.5556 10C13.5556 9.25926 13.6111 8.51852 13.7222 7.77778C13.8333 7.03704 13.9815 6.2963 14.1667 5.55556C11.2778 6.74074 8.93518 8.62963 7.13889 11.2222C5.34259 13.8148 4.44444 16.7407 4.44444 20C4.44444 24.2963 5.96296 27.963 9 31C12.037 34.037 15.7037 35.5556 20 35.5556Z" fill="#F2F2F2"/>
</svg>
