<svg width="40" height="40" viewBox="0 0 40 40" fill="none" xmlns="http://www.w3.org/2000/svg">
<path d="M20 25.4545C21.5152 25.4545 22.803 24.9242 23.8636 23.8636C24.9242 22.803 25.4545 21.5152 25.4545 20C25.4545 18.4848 24.9242 17.197 23.8636 16.1364C22.803 15.0758 21.5152 14.5455 20 14.5455C18.4848 14.5455 17.197 15.0758 16.1364 16.1364C15.0758 17.197 14.5455 18.4848 14.5455 20C14.5455 21.5152 15.0758 22.803 16.1364 23.8636C17.197 24.9242 18.4848 25.4545 20 25.4545ZM20 29.0909C17.4848 29.0909 15.3409 28.2045 13.5682 26.4318C11.7955 24.6591 10.9091 22.5152 10.9091 20C10.9091 17.4848 11.7955 15.3409 13.5682 13.5682C15.3409 11.7955 17.4848 10.9091 20 10.9091C22.5152 10.9091 24.6591 11.7955 26.4318 13.5682C28.2045 15.3409 29.0909 17.4848 29.0909 20C29.0909 22.5152 28.2045 24.6591 26.4318 26.4318C24.6591 28.2045 22.5152 29.0909 20 29.0909ZM1.81818 21.8182C1.30303 21.8182 0.871212 21.6439 0.522727 21.2955C0.174242 20.947 0 20.5152 0 20C0 19.4848 0.174242 19.053 0.522727 18.7045C0.871212 18.3561 1.30303 18.1818 1.81818 18.1818H5.45455C5.9697 18.1818 6.40152 18.3561 6.75 18.7045C7.09848 19.053 7.27273 19.4848 7.27273 20C7.27273 20.5152 7.09848 20.947 6.75 21.2955C6.40152 21.6439 5.9697 21.8182 5.45455 21.8182H1.81818ZM34.5455 21.8182C34.0303 21.8182 33.5985 21.6439 33.25 21.2955C32.9015 20.947 32.7273 20.5152 32.7273 20C32.7273 19.4848 32.9015 19.053 33.25 18.7045C33.5985 18.3561 34.0303 18.1818 34.5455 18.1818H38.1818C38.697 18.1818 39.1288 18.3561 39.4773 18.7045C39.8258 19.053 40 19.4848 40 20C40 20.5152 39.8258 20.947 39.4773 21.2955C39.1288 21.6439 38.697 21.8182 38.1818 21.8182H34.5455ZM20 7.27273C19.4848 7.27273 19.053 7.09848 18.7045 6.75C18.3561 6.40152 18.1818 5.9697 18.1818 5.45455V1.81818C18.1818 1.30303 18.3561 0.871212 18.7045 0.522727C19.053 0.174242 19.4848 0 20 0C20.5152 0 20.947 0.174242 21.2955 0.522727C21.6439 0.871212 21.8182 1.30303 21.8182 1.81818V5.45455C21.8182 5.9697 21.6439 6.40152 21.2955 6.75C20.947 7.09848 20.5152 7.27273 20 7.27273ZM20 40C19.4848 40 19.053 39.8258 18.7045 39.4773C18.3561 39.1288 18.1818 38.697 18.1818 38.1818V34.5455C18.1818 34.0303 18.3561 33.5985 18.7045 33.25C19.053 32.9015 19.4848 32.7273 20 32.7273C20.5152 32.7273 20.947 32.9015 21.2955 33.25C21.6439 33.5985 21.8182 34.0303 21.8182 34.5455V38.1818C21.8182 38.697 21.6439 39.1288 21.2955 39.4773C20.947 39.8258 20.5152 40 20 40ZM8.45455 11L6.5 9.09091C6.13636 8.75758 5.96212 8.33333 5.97727 7.81818C5.99242 7.30303 6.16667 6.86364 6.5 6.5C6.86364 6.13636 7.30303 5.95455 7.81818 5.95455C8.33333 5.95455 8.75758 6.13636 9.09091 6.5L11 8.45455C11.3333 8.81818 11.5 9.24242 11.5 9.72727C11.5 10.2121 11.3333 10.6364 11 11C10.6667 11.3636 10.25 11.5379 9.75 11.5227C9.25 11.5076 8.81818 11.3333 8.45455 11ZM30.9091 33.5L29 31.5455C28.6667 31.1818 28.5 30.75 28.5 30.25C28.5 29.75 28.6667 29.3333 29 29C29.3333 28.6364 29.75 28.4621 30.25 28.4773C30.75 28.4924 31.1818 28.6667 31.5455 29L33.5 30.9091C33.8636 31.2424 34.0379 31.6667 34.0227 32.1818C34.0076 32.697 33.8333 33.1364 33.5 33.5C33.1364 33.8636 32.697 34.0455 32.1818 34.0455C31.6667 34.0455 31.2424 33.8636 30.9091 33.5ZM29 11C28.6364 10.6667 28.4621 10.25 28.4773 9.75C28.4924 9.25 28.6667 8.81818 29 8.45455L30.9091 6.5C31.2424 6.13636 31.6667 5.96212 32.1818 5.97727C32.697 5.99242 33.1364 6.16667 33.5 6.5C33.8636 6.86364 34.0455 7.30303 34.0455 7.81818C34.0455 8.33333 33.8636 8.75758 33.5 9.09091L31.5455 11C31.1818 11.3333 30.7576 11.5 30.2727 11.5C29.7879 11.5 29.3636 11.3333 29 11ZM6.5 33.5C6.13636 33.1364 5.95455 32.697 5.95455 32.1818C5.95455 31.6667 6.13636 31.2424 6.5 30.9091L8.45455 29C8.81818 28.6667 9.25 28.5 9.75 28.5C10.25 28.5 10.6667 28.6667 11 29C11.3636 29.3333 11.5379 29.75 11.5227 30.25C11.5076 30.75 11.3333 31.1818 11 31.5455L9.09091 33.5C8.75758 33.8636 8.33333 34.0379 7.81818 34.0227C7.30303 34.0076 6.86364 33.8333 6.5 33.5Z" fill="#F2F2F2"/>
</svg>
